<?xml version="1.0" encoding="UTF-8"?>
<svg width="239px" height="138px" viewBox="0 0 239 138" version="1.1" xmlns="http://www.w3.org/2000/svg" xmlns:xlink="http://www.w3.org/1999/xlink">
    <!-- Generator: Sketch 49.3 (51167) - http://www.bohemiancoding.com/sketch -->
    <title>logo</title>
    <desc>Created with Sketch.</desc>
    <defs></defs>
    <g id="Page-1" stroke="none" stroke-width="1" fill="none" fill-rule="evenodd">
        <path d="M2,0 L19.9456506,0 L19.9456506,28.3712089 L38.7628339,0 L62.6111378,0 L41.4566622,28.3199973 L63.5619007,75.0761593 L41.4566622,75.0761593 L29.2155893,44.1955835 L19.9456506,56.7424178 L19.9456506,75.0761593 L2,75.0761593 L2,0 Z M63.641131,0 L83.5675377,0 L95.293614,25.3497264 L107.01969,0 L126.827252,0 L104.246632,43.6322563 L104.246632,75.0761593 L86.2613661,75.0761593 L86.2613661,43.6322563 L63.641131,0 Z M132.61106,0 L150.55671,0 L150.55671,56.5887831 L178.564602,56.5887831 L178.564602,75.0761593 L132.61106,75.0761593 L132.61106,0 Z M186.685702,0 L234.778461,0 L234.778461,16.0292209 L204.670968,16.0292209 L204.670968,27.9615164 L232.599629,27.9615164 L232.599629,43.2737753 L204.670968,43.2737753 L204.670968,58.0739186 L235.649994,58.0739186 L235.649994,75.0761593 L186.685702,75.0761593 L186.685702,0 Z" id="KYLE" fill="#49B5E4"></path>
        <path d="M3,113.982845 L3,82.5573418 L18.2751928,82.5573418 C21.385793,82.5573418 23.8807162,82.8753093 25.7600372,83.5112537 C27.6393582,84.1471982 29.1113166,85.1261092 30.1759566,86.4480163 C31.2405965,87.7699233 31.7729085,89.1525458 31.7729085,90.5959254 C31.7729085,91.9392688 31.3007709,93.2039933 30.3564816,94.3901369 C29.4121922,95.5762805 27.9865218,96.5337555 26.0794276,97.2625907 C28.5419861,97.8199353 30.4351653,98.770265 31.759022,100.113608 C33.0828787,101.456952 33.7447971,103.043216 33.7447971,104.87245 C33.7447971,106.344411 33.3420915,107.712743 32.5366682,108.977487 C31.7312449,110.24223 30.7360529,111.217568 29.5510623,111.903531 C28.3660718,112.589494 26.880227,113.10753 25.0934833,113.457657 C23.3067397,113.807784 21.1173173,113.982845 18.5251505,113.982845 L3,113.982845 Z M8.38797708,95.7620551 L17.1920427,95.7620551 C19.5805394,95.7620551 21.2931954,95.6405844 22.3300621,95.3976393 C23.7002075,95.0832398 24.7324299,94.5616303 25.4267603,93.8327951 C26.1210907,93.1039598 26.4682507,92.1893568 26.4682507,91.0889585 C26.4682507,90.0457238 26.1442347,89.1275481 25.496193,88.3344039 C24.8481513,87.5412597 23.9223913,86.9982141 22.7188852,86.7052509 C21.5153791,86.4122878 19.4509343,86.2658084 16.5254889,86.2658084 L8.38797708,86.2658084 L8.38797708,95.7620551 Z M8.38797708,110.274378 L18.5251505,110.274378 C20.2656054,110.274378 21.4876086,110.224361 22.1911967,110.124325 C23.4317337,109.952834 24.4685849,109.66702 25.3017814,109.266876 C26.1349779,108.866731 26.8200403,108.284386 27.3569892,107.519823 C27.893938,106.755261 28.1624084,105.872812 28.1624084,104.87245 C28.1624084,103.700597 27.7735892,102.682387 26.9959392,101.817788 C26.2182891,100.953189 25.1397787,100.345836 23.7603756,99.9957092 C22.3809725,99.6455824 20.3952173,99.4705217 17.8030504,99.4705217 L8.38797708,99.4705217 L8.38797708,110.274378 Z M49.2006062,98.6773815 C49.2006062,93.4612078 51.0150958,89.3776482 54.6441294,86.42658 C58.273163,83.4755119 62.9575086,82 68.6973067,82 C72.4559487,82 75.8442303,82.6930976 78.8622532,84.0793136 C81.8802761,85.4655296 84.1807897,87.3983431 85.763863,89.8778119 C87.3469364,92.3572808 88.1384612,95.1689706 88.1384612,98.3129657 C88.1384612,101.499833 87.3052772,104.350823 85.6388842,106.866019 C83.9724912,109.381215 81.6118032,111.285447 78.5567493,112.578772 C75.5016955,113.872097 72.2059899,114.51875 68.6695337,114.51875 C64.8368298,114.51875 61.4115178,113.804217 58.3934949,112.375128 C55.375472,110.946039 53.0888448,108.995362 51.5335447,106.523039 C49.9782446,104.050716 49.2006062,101.435523 49.2006062,98.6773815 Z M54.7552217,98.7416901 C54.7552217,102.528775 56.0744297,105.511953 58.7128853,107.691313 C61.3513409,109.870673 64.6609329,110.960337 68.6417606,110.960337 C72.6966502,110.960337 76.034015,109.859955 78.6539551,107.659159 C81.2738952,105.458362 82.5838456,102.33585 82.5838456,98.2915294 C82.5838456,95.7334607 82.0237608,93.5005432 80.9035744,91.5927098 C79.783388,89.6848764 78.1447928,88.2057918 75.9877396,87.1554116 C73.8306865,86.1050314 71.4098241,85.5798492 68.7250798,85.5798492 C64.9108914,85.5798492 61.6290722,86.5909143 58.8795238,88.6130748 C56.1299753,90.6352353 54.7552217,94.0114066 54.7552217,98.7416901 Z M103.122128,98.6773815 C103.122128,93.4612078 104.936618,89.3776482 108.565651,86.42658 C112.194685,83.4755119 116.87903,82 122.618829,82 C126.37747,82 129.765752,82.6930976 132.783775,84.0793136 C135.801798,85.4655296 138.102311,87.3983431 139.685385,89.8778119 C141.268458,92.3572808 142.059983,95.1689706 142.059983,98.3129657 C142.059983,101.499833 141.226799,104.350823 139.560406,106.866019 C137.894013,109.381215 135.533325,111.285447 132.478271,112.578772 C129.423217,113.872097 126.127512,114.51875 122.591055,114.51875 C118.758352,114.51875 115.33304,113.804217 112.315017,112.375128 C109.296994,110.946039 107.010367,108.995362 105.455066,106.523039 C103.899766,104.050716 103.122128,101.435523 103.122128,98.6773815 Z M108.676743,98.7416901 C108.676743,102.528775 109.995951,105.511953 112.634407,107.691313 C115.272863,109.870673 118.582455,110.960337 122.563282,110.960337 C126.618172,110.960337 129.955537,109.859955 132.575477,107.659159 C135.195417,105.458362 136.505367,102.33585 136.505367,98.2915294 C136.505367,95.7334607 135.945283,93.5005432 134.825096,91.5927098 C133.70491,89.6848764 132.066315,88.2057918 129.909261,87.1554116 C127.752208,86.1050314 125.331346,85.5798492 122.646602,85.5798492 C118.832413,85.5798492 115.550594,86.5909143 112.801046,88.6130748 C110.051497,90.6352353 108.676743,94.0114066 108.676743,98.7416901 Z M169.041619,113.982845 L169.041619,86.2658084 L155.627223,86.2658084 L155.627223,82.5573418 L187.899539,82.5573418 L187.899539,86.2658084 L174.429596,86.2658084 L174.429596,113.982845 L169.041619,113.982845 Z M203.272029,113.982845 L203.272029,82.5573418 L208.660006,82.5573418 L208.660006,95.461948 L229.823091,95.461948 L229.823091,82.5573418 L235.211068,82.5573418 L235.211068,113.982845 L229.823091,113.982845 L229.823091,99.1704146 L208.660006,99.1704146 L208.660006,113.982845 L203.272029,113.982845 Z" id="BOOTH" stroke="#272727" stroke-width="2" fill="#272727"></path>
        <text id="FULL-STACK-WEB-DEVEL" font-family="ArialMT, Arial" font-size="15.8999996" font-weight="normal" fill="#7C7C7C">
            <tspan x="0.370339772" y="135">FULL-STACK WEB DEVELOPER</tspan>
        </text>
    </g>
</svg>