<?xml version="1.0" encoding="utf-8"?>
<!-- Generator: Adobe Illustrator 20.1.0, SVG Export Plug-In . SVG Version: 6.00 Build 0)  -->
<svg version="1.1" xmlns="http://www.w3.org/2000/svg" xmlns:xlink="http://www.w3.org/1999/xlink" x="0px" y="0px"
	 viewBox="0 0 360.7 180" style="enable-background:new 0 0 360.7 180;" xml:space="preserve">
<style type="text/css">
	.Arched_x0020_Green{fill:url(#SVGID_1_);stroke:#FFFFFF;stroke-width:0.25;stroke-miterlimit:1;}
	.st0{fill:#FFFFFF;}
</style>
<linearGradient id="SVGID_1_" gradientUnits="userSpaceOnUse" x1="-18.3333" y1="197.999" x2="-17.6262" y2="197.2919">
	<stop  offset="0" style="stop-color:#20AC4B"/>
	<stop  offset="0.9831" style="stop-color:#19361A"/>
</linearGradient>
<g id="Layer_1">
	<rect x="180" y="0" width="180.7" height="180"/>
	<rect width="180" height="180"/>
	<g>
		<g>
			<path class="st0" d="M42.4,33.5v10.3l-9.2,0.7V30.1c0-3.4-1.5-5.1-4.6-5.1c-3.1,0-4.6,1.7-4.6,5.1V76c0,3.4,1.5,5,4.6,4.8
				c3.1-0.2,4.6-2,4.6-5.5V65.1l9.2-0.7v10.3c0,10.3-4.6,15.8-13.9,16.4c-9.2,0.7-13.9-4.2-13.9-14.5V35.5
				c0-10.3,4.6-20.8,13.9-20.8S42.4,23.2,42.4,33.5z"/>
			<path class="st0" d="M47,14.7h9.2v64.1l13.9-1v10.3L47,89.8V14.7z"/>
			<path class="st0" d="M74.8,14.7h23.1v9.7l-13.9,1V46l11.5-0.8v10.3L84,56.3v20.6l13.9-1v10.3l-23.1,1.6V14.7z"/>
			<path class="st0" d="M102.5,85.9l7.4-71.1h15.7l7.4,69l-9.2,0.7L121.9,69l-8.3,0.6l-1.8,15.6L102.5,85.9z M117.7,23.5l-3.2,35.7
				l6.5-0.5L117.7,23.5z"/>
			<path class="st0" d="M137.6,83.4V14.7h13.9c9.2,0,13.9,5.1,13.9,15.4v10.1c0,5.8-1.7,10.1-5.1,12.7l5.1,28.5l-9.2,0.7l-4.6-25.4
				l-4.6,0.3v25.7L137.6,83.4z M146.8,25v21.7l4.6-0.3c3.1-0.2,4.6-2,4.6-5.5V30.1c0-3.4-1.5-5.1-4.6-5.1H146.8z"/>
		</g>
		<g>
			<path class="st0" d="M14.7,98.6L37.8,97v10.3l-13.9,1v20.6l11.5-0.8v10.3l-11.5,0.8v26.2h-9.2V98.6z"/>
			<path class="st0" d="M53,95.9v69.4h-9.2V96.5L53,95.9z"/>
			<path class="st0" d="M58.9,95.5l9.2-0.7v61.7l13.9-1v9.7H58.9V95.5z"/>
			<path class="st0" d="M101.8,92.4l7.8,48.8l8.3-50l13.9-1v75h-9.2v-51.2l-8.3,51.2H105l-7.9-49.4v49.4h-9.2V93.4L101.8,92.4z"/>
			<path class="st0" d="M137.6,138.8l9.2-0.7v11.8c0,3.4,1.5,5.1,4.6,5.1c3.1,0,4.6-1.7,4.6-5.1V140c0-3.4-3.1-7.5-9.2-12.2
				c-6.2-4.7-9.2-10.5-9.2-17.4v-5.1c0-10.3,4.6-15.8,13.9-16.4c9.2-0.7,13.9,4.2,13.9,14.5v7.7l-9.2,0.7V104c0-3.4-1.5-5-4.6-4.8
				c-3.1,0.2-4.6,2-4.6,5.5v5.1c0,3.4,3.1,7.5,9.2,12.2c6.2,4.7,9.2,10.5,9.2,17.4v10.5c0,10.3-4.6,15.4-13.9,15.4
				c-9.2,0-13.9-5.1-13.9-15.4V138.8z"/>
		</g>
	</g>
	<circle class="st0" cx="270" cy="91.3" r="77"/>
</g>
<g id="Layer_2">
	<polygon points="248.9,53.1 248.9,129.2 316.4,91.3 	"/>
</g>
<g id="Layer_3">
</g>
</svg>
